<svg xmlns="http://www.w3.org/2000/svg" viewBox="0 0 480.066 480"><path fill="#9bc9ff" d="M320.012 192.035c0-26.508-21.492-48-48-48h-80v96h80c26.508 0 48-21.492 48-48zM192.012 336.035h80c26.508 0 48-21.492 48-48s-21.492-48-48-48h-80zm0 0"/><path fill="#9bc9ff" d="M472.012 240.035c0 128.13-103.871 232-232 232-128.133 0-232-103.87-232-232s103.867-232 232-232c128.129 0 232 103.871 232 232zm0 0"/><g fill="#1e81ce"><path d="M240.012 448.035a208.253 208.253 0 0 1-133.13-48.176 7.999 7.999 0 0 1-1.019-11.27 8.001 8.001 0 0 1 11.266-1.019c78.887 65.727 195.512 57.778 264.754-18.035 69.238-75.816 66.601-192.683-5.988-265.3C303.3 31.62 186.437 28.944 110.598 98.16 34.758 167.38 26.778 284 92.473 362.906a8.003 8.003 0 0 1-12.286 10.258C17.81 298.281 15.79 190.13 75.324 112.973c59.535-77.16 164.66-102.637 252.914-61.293 88.254 41.343 135.969 138.422 114.793 233.55-21.176 95.13-105.562 162.801-203.02 162.805zm0 0"/><path d="M240.012 416.035c-4.422 0-8-3.582-8-8s3.578-8 8-8a160.003 160.003 0 0 0 103.047-37.703 8.004 8.004 0 0 1 11.277.953 8.008 8.008 0 0 1-.957 11.277 175.995 175.995 0 0 1-113.367 41.473zM368.594 356.035a8.001 8.001 0 0 1-6.113-13.152 160.008 160.008 0 0 0 37.53-102.848 8 8 0 0 1 16 0 176.112 176.112 0 0 1-41.288 113.16 8.001 8.001 0 0 1-6.13 2.84zM72.012 248.035c-4.422 0-8-3.582-8-8 .11-97.156 78.843-175.89 176-176a8 8 0 0 1 0 16c-88.325.102-159.899 71.676-160 160a8 8 0 0 1-8 8zm0 0"/><path d="M391.21 72.035a7.955 7.955 0 0 1-5.218-1.937c-83.941-72.09-207.945-72.09-291.887 0a7.999 7.999 0 1 1-10.398-12.125c89.938-77.254 222.813-77.254 312.75 0a8 8 0 0 1-5.246 14.063zM240.012 480.035c-93.774.004-178.961-54.61-218.106-139.82C-17.234 255-3.16 154.793 57.938 83.66a8.002 8.002 0 0 1 11.03-.594 8.001 8.001 0 0 1 1.106 10.993c-77.68 90.46-70.879 225.918 15.469 308.144 86.352 82.227 221.977 82.402 308.535.395 86.555-82.008 93.7-217.45 16.25-308.106A8.006 8.006 0 0 1 422.5 84.09c60.867 71.21 74.742 171.324 35.531 256.402-39.215 85.078-124.344 139.567-218.02 139.543zm0 0"/><path d="M300.707 240.035c21.633-12.894 31.984-38.656 25.285-62.937-6.699-24.278-28.797-41.086-53.98-41.063h-24v-24h-16v24h-16v-24h-16v24h-40v16h24v176h-24v16h40v24h16v-24h16v24h16v-24h24c25.183.024 47.281-16.785 53.98-41.062 6.7-24.282-3.652-50.043-25.285-62.938zm-100.695-88h72c22.09 0 40 17.91 40 40s-17.91 40-40 40h-72zm72 176h-72v-80h72c22.09 0 40 17.91 40 40s-17.91 40-40 40zm0 0"/></g></svg>