<svg xmlns="http://www.w3.org/2000/svg" width="110" height="16" fill="none"><path fill="#fff" d="M61.662 15.338h2.82V9.245h6.784V6.792h-6.783V2.993h8.603V.545H61.662v14.793ZM79.497.545h-2.821v14.793h8.941V12.89h-6.12V.544ZM91.917.545h-2.821v14.793h2.82V.545ZM104.765 8.07h-5.838V2.993h5.838c.659.091 1.261.398 1.696.864.435.465.674 1.06.674 1.675s-.239 1.209-.674 1.675a2.852 2.852 0 0 1-1.696.863Zm0-7.525h-8.659v14.793h2.821v-4.82h5.838c1.403-.041 2.735-.585 3.712-1.516.977-.93 1.523-2.175 1.523-3.47 0-1.296-.546-2.54-1.523-3.471-.977-.93-2.309-1.474-3.712-1.516ZM8.587 13.398a6.177 6.177 0 0 1-2.66-.597 5.67 5.67 0 0 1-2.065-1.659 5.103 5.103 0 0 1-1.006-2.349 4.944 4.944 0 0 1 .279-2.513c.31-.804.824-1.529 1.501-2.112A5.926 5.926 0 0 1 7.022 2.93c.892-.23 1.83-.26 2.737-.087a6.002 6.002 0 0 1 2.473 1.085l1.78-2.018a8.986 8.986 0 0 0-4.4-1.715A9.24 9.24 0 0 0 4.9.911c-1.466.644-2.705 1.659-3.572 2.926A7.485 7.485 0 0 0 0 8.07c0 1.498.46 2.966 1.327 4.233.867 1.267 2.106 2.281 3.572 2.926a9.24 9.24 0 0 0 4.713.716 8.986 8.986 0 0 0 4.4-1.716l-1.78-2.022a6.078 6.078 0 0 1-3.65 1.196M38.758.545h-2.821v14.793h2.82V.545ZM54.317 11.232 45.77.545h-2.822v14.793h2.822V4.769l8.547 10.569h2.821V.545h-2.821v10.687ZM24.373 2.603a6.143 6.143 0 0 1 3.093.833 5.496 5.496 0 0 1 2.13 2.23c.466.914.641 1.932.505 2.935a5.134 5.134 0 0 1-1.276 2.728h3.339a7.376 7.376 0 0 0 .597-5.213c-.447-1.75-1.525-3.308-3.057-4.42C28.172.587 26.276-.012 24.326 0c-1.949.013-3.835.636-5.35 1.767l1.775 2.022A6.067 6.067 0 0 1 24.39 2.6M24.374 13.264a6.137 6.137 0 0 1-3.096-.828 5.491 5.491 0 0 1-2.133-2.231 4.962 4.962 0 0 1-.504-2.937 5.132 5.132 0 0 1 1.282-2.73h-3.34a7.376 7.376 0 0 0-.592 5.21c.447 1.748 1.524 3.305 3.055 4.415 1.53 1.11 3.424 1.71 5.372 1.698 1.947-.011 3.833-.632 5.348-1.76l-1.775-2.022a6.067 6.067 0 0 1-3.633 1.185"/></svg>