<svg xmlns="http://www.w3.org/2000/svg" width="50" height="50" fill="none"><path fill="url(#a)" d="M39.933 15.667v-3.734A3.737 3.737 0 0 0 36.2 8.2H11.933a5.607 5.607 0 0 0-5.6 5.6v22.4c0 4.108 3.349 5.6 5.6 5.6h28a3.737 3.737 0 0 0 3.734-3.733V19.4a3.737 3.737 0 0 0-3.734-3.733Zm-3.733 16.8h-3.733V25H36.2v7.467Zm-24.267-16.8a1.868 1.868 0 0 1 0-3.734H36.2v3.734H11.933Z"/><defs><linearGradient id="a" x1="13.139" x2="59.61" y1="58.25" y2="18.043" gradientUnits="userSpaceOnUse"><stop stop-color="#982DEC"/><stop offset=".573" stop-color="#DC8DF8"/><stop offset=".896" stop-color="#A9C4F3"/></linearGradient></defs></svg>