<svg xmlns="http://www.w3.org/2000/svg" width="50" height="50" fill="none"><path fill="url(#a)" fill-rule="evenodd" d="M31.222 8.407a6.228 6.228 0 0 1 5.87 4.149H18.778a10.37 10.37 0 0 0-10.37 10.37v10.018a6.224 6.224 0 0 1-4.149-5.87V14.63a6.222 6.222 0 0 1 6.223-6.223h20.74Zm8.297 8.297H18.778a6.222 6.222 0 0 0-6.222 6.222V35.37a6.222 6.222 0 0 0 6.222 6.223h20.74a6.222 6.222 0 0 0 6.223-6.223V22.926a6.222 6.222 0 0 0-6.222-6.222Zm-6.223 12.444a4.148 4.148 0 1 1-8.295 0 4.148 4.148 0 0 1 8.295 0Z" clip-rule="evenodd"/><defs><linearGradient id="a" x1="11.821" x2="58.183" y1="57.84" y2="12.712" gradientUnits="userSpaceOnUse"><stop stop-color="#982DEC"/><stop offset=".573" stop-color="#DC8DF8"/><stop offset=".896" stop-color="#A9C4F3"/></linearGradient></defs></svg>