<svg xmlns="http://www.w3.org/2000/svg" width="50" height="50" fill="none"><path fill="url(#a)" d="M20.022 12.556a2.49 2.49 0 0 0 0 4.977h13.903l-3.218 3.218a2.49 2.49 0 0 0 3.52 3.52l7.466-7.467a2.489 2.489 0 0 0 0-3.52l-7.467-7.466a2.488 2.488 0 1 0-3.52 3.52l3.219 3.218H20.022Z"/><path fill="url(#b)" d="M29.978 37.444a2.489 2.489 0 1 0 0-4.977H16.075l3.218-3.218a2.49 2.49 0 1 0-3.52-3.52l-7.466 7.467a2.489 2.489 0 0 0 0 3.52l7.466 7.466a2.489 2.489 0 0 0 3.52-3.52l-3.218-3.218h13.903Z"/><defs><linearGradient id="a" x1="13.93" x2="65.725" y1="64.377" y2="29.087" gradientUnits="userSpaceOnUse"><stop stop-color="#982DEC"/><stop offset=".573" stop-color="#DC8DF8"/><stop offset=".896" stop-color="#A9C4F3"/></linearGradient><linearGradient id="b" x1="13.93" x2="65.725" y1="64.377" y2="29.087" gradientUnits="userSpaceOnUse"><stop stop-color="#982DEC"/><stop offset=".573" stop-color="#DC8DF8"/><stop offset=".896" stop-color="#A9C4F3"/></linearGradient></defs></svg>